<svg width="61" height="60" viewBox="0 0 61 60" fill="none" xmlns="http://www.w3.org/2000/svg">
<path d="M15.6111 21.2297C14.9012 21.1014 14.2705 20.6937 13.8576 20.0958C13.4448 19.498 13.2833 18.759 13.4088 18.041C13.4567 17.7753 13.4523 17.5027 13.3957 17.2388C13.3392 16.9748 13.2316 16.7248 13.0792 16.503C12.9268 16.2812 12.7326 16.092 12.5077 15.9463C12.2828 15.8006 12.0316 15.7012 11.7686 15.6539C10.2942 15.3492 9.30891 13.916 9.56624 12.457L10.2513 12.5742C10.0612 13.6605 10.8007 14.7305 11.9007 14.9578C12.6093 15.0874 13.2382 15.4956 13.6497 16.0931C14.0612 16.6905 14.2217 17.4285 14.0961 18.1453C14.0485 18.4109 14.0532 18.6834 14.1099 18.9471C14.1666 19.2108 14.2742 19.4607 14.4266 19.6823C14.5789 19.904 14.7731 20.093 14.9978 20.2387C15.2225 20.3844 15.4735 20.4838 15.7363 20.5312L15.6111 21.2297Z" fill="#5E6175"/>
<path d="M22.1321 20.8863C21.7557 20.5321 21.4521 20.1063 21.2385 19.6333C21.025 19.1603 20.9058 18.6494 20.8878 18.1299C20.8697 17.6103 20.9531 17.0922 21.1331 16.6052C21.3132 16.1182 21.5865 15.6719 21.9373 15.2918C23.0965 14.0871 23.1382 11.9707 21.7785 10.6887C20.2346 9.16523 20.1557 6.65039 21.5849 5.0918L22.0938 5.56992C20.9138 6.85312 20.988 8.92148 22.2596 10.1801C23.8963 11.7234 23.8615 14.3027 22.4392 15.7781C21.8598 16.4101 21.5519 17.2487 21.5832 18.1099C21.6145 18.9711 21.9824 19.7846 22.6061 20.3719L22.1321 20.8863Z" fill="#5E6175"/>
<path d="M29.1648 24.3563C28.4675 23.3569 28.1914 22.1186 28.397 20.9135C28.6026 19.7083 29.2732 18.6351 30.2613 17.9297C31.0985 17.3304 31.6664 16.4199 31.8402 15.3978C32.0141 14.3757 31.7797 13.3257 31.1886 12.4781L31.7578 12.0738C32.4541 13.074 32.7296 14.3125 32.5238 15.5178C32.318 16.723 31.6478 17.7965 30.6601 18.5027C30.2448 18.7989 29.8913 19.1749 29.6199 19.6092C29.3485 20.0436 29.1645 20.5278 29.0783 21.0341C28.9922 21.5405 29.0057 22.059 29.118 22.5601C29.2303 23.0612 29.4392 23.5349 29.7328 23.9543L29.1648 24.3563Z" fill="#5E6175"/>
<path d="M46.5831 29.7762L44.011 47.175C43.8807 48.0586 43.4409 48.8655 42.7716 49.4488C42.1023 50.0322 41.248 50.3531 40.3644 50.3531H40.1801C40.5032 50.3529 40.8223 50.2799 41.1141 50.1396C41.4059 49.9993 41.6632 49.795 41.8673 49.5417C42.0713 49.2884 42.2171 48.9923 42.294 48.675C42.3708 48.3577 42.3769 48.027 42.3117 47.707L39.1392 32.1797C39.0161 31.5836 38.6938 31.0484 38.2265 30.6643C37.7591 30.2801 37.1752 30.0704 36.5728 30.0703H18.0579L16.5105 27.4922C16.2769 27.1035 15.9483 26.7821 15.5563 26.559C15.1643 26.336 14.722 26.2186 14.2722 26.2184H13.3982C13.307 25.8293 13.3042 25.4245 13.3898 25.0342C13.4755 24.6439 13.6474 24.2782 13.8928 23.9647C14.1381 23.6511 14.4505 23.3978 14.8065 23.2237C15.1625 23.0496 15.5528 22.9592 15.9483 22.9594H20.3797C20.8222 22.9596 21.2574 23.0729 21.6449 23.2889C22.0324 23.5048 22.3596 23.8164 22.596 24.1945L24.1817 26.7363H43.9913C44.3681 26.7364 44.7404 26.8186 45.0829 26.9773C45.4254 27.136 45.73 27.3675 45.976 27.656C46.222 27.9445 46.4036 28.2832 46.5083 28.6491C46.6131 29.015 46.6386 29.3994 46.5831 29.7762Z" fill="url(#paint0_linear_23842_11782)"/>
<path style="mix-blend-mode:multiply" d="M46.5833 29.7762L45.838 34.8152C43.8924 34.4007 42.1123 33.4117 40.7231 31.9735C39.334 30.5353 38.3983 28.7126 38.0347 26.7363H43.988C44.3651 26.7359 44.7378 26.8177 45.0807 26.9762C45.4236 27.1347 45.7287 27.3661 45.975 27.6547C46.2214 27.9432 46.4033 28.2822 46.5083 28.6483C46.6132 29.0144 46.6388 29.3991 46.5833 29.7762Z" fill="url(#paint1_linear_23842_11782)"/>
<path d="M40.1799 50.3531H12.5739C11.9717 50.3532 11.3878 50.1435 10.9206 49.7593C10.4533 49.3751 10.1313 48.8399 10.0088 48.2438L6.1581 29.4035C6.07946 29.0183 6.08664 28.6202 6.17913 28.2381C6.27162 27.856 6.4471 27.4996 6.69283 27.1946C6.93855 26.8896 7.24836 26.6438 7.59976 26.4749C7.95117 26.3061 8.33535 26.2184 8.72443 26.2184H14.2721C14.722 26.2183 15.1644 26.3354 15.5566 26.5583C15.9488 26.7811 16.2777 27.1024 16.5115 27.491L18.059 30.0691H36.5727C37.175 30.0692 37.759 30.279 38.2264 30.6631C38.6937 31.0473 39.016 31.5824 39.139 32.1785L42.3116 47.707C42.3768 48.027 42.3707 48.3577 42.2938 48.675C42.217 48.9923 42.0712 49.2884 41.8671 49.5417C41.6631 49.795 41.4058 49.9993 41.114 50.1396C40.8221 50.2799 40.5031 50.3529 40.1799 50.3531Z" fill="#DEE1EC"/>
<path d="M40.18 50.7047H12.574C11.8916 50.7024 11.2307 50.4634 10.7018 50.0277C10.1728 49.5919 9.80791 48.9857 9.66799 48.3105L5.81966 29.475C5.73051 29.0386 5.7386 28.5876 5.84334 28.1548C5.94809 27.7219 6.14686 27.3181 6.42523 26.9726C6.7036 26.6271 7.05457 26.3486 7.45267 26.1573C7.85077 25.9661 8.28601 25.8668 8.72677 25.8668H14.2721C14.7808 25.8681 15.2808 26.0009 15.7245 26.2525C16.1682 26.5042 16.5409 26.8664 16.8071 27.3047L18.2537 29.7094H36.5681C37.2521 29.7112 37.9146 29.9507 38.4447 30.3876C38.9748 30.8246 39.3403 31.4324 39.4798 32.1094L42.6524 47.6367C42.7281 48.0078 42.7212 48.3913 42.632 48.7593C42.5429 49.1274 42.3738 49.4707 42.1371 49.7645C41.9003 50.0583 41.6019 50.295 41.2634 50.4577C40.9248 50.6203 40.5548 50.7047 40.18 50.7047ZM8.72677 26.5699C8.38971 26.5705 8.057 26.6469 7.75276 26.7936C7.44852 26.9403 7.18038 27.1536 6.96777 27.418C6.75515 27.6824 6.6034 27.9913 6.52351 28.3224C6.44362 28.6534 6.43759 28.9983 6.50587 29.332L10.3484 48.1641C10.4559 48.6809 10.7355 49.1449 11.1405 49.4785C11.5455 49.812 12.0515 49.995 12.574 49.9969H40.18C40.4519 49.9969 40.7203 49.9357 40.9659 49.8176C41.2114 49.6995 41.4278 49.5276 41.5993 49.3143C41.7709 49.1011 41.8932 48.8518 41.9575 48.5847C42.0218 48.3176 42.0263 48.0394 41.9708 47.7703L38.7983 32.243C38.691 31.7257 38.4113 31.2613 38.006 30.9275C37.6007 30.5937 37.0944 30.4106 36.5716 30.409H17.8654L16.2171 27.6656C16.0121 27.3306 15.7258 27.0541 15.3854 26.8623C15.045 26.6705 14.6618 26.5699 14.2721 26.5699H8.72677Z" fill="#5E6175"/>
<path d="M40.3642 50.7047H40.1799V50.0016C40.4518 50.0016 40.7203 49.9404 40.9658 49.8223C41.2113 49.7042 41.4277 49.5323 41.5993 49.319C41.7708 49.1057 41.8932 48.8565 41.9574 48.5894C42.0217 48.3223 42.0262 48.0441 41.9708 47.775L38.7982 32.2477C38.6909 31.7304 38.4113 31.266 38.006 30.9322C37.6007 30.5983 37.0943 30.4153 36.5715 30.4137H17.8653L16.217 27.6703C16.0126 27.3344 15.7265 27.057 15.3861 26.8643C15.0457 26.6717 14.6621 26.5704 14.272 26.5699H13.1222L13.0596 26.2992C12.9566 25.8586 12.9535 25.4001 13.0506 24.9581C13.1478 24.5161 13.3426 24.102 13.6204 23.747C13.8983 23.3919 14.252 23.1049 14.6551 22.9077C15.0582 22.7104 15.5003 22.6079 15.9481 22.6078H20.3795C20.881 22.6062 21.3745 22.7338 21.8136 22.9786C22.2527 23.2235 22.6229 23.5774 22.889 24.007L24.3739 26.3848H43.9911C44.4179 26.3849 44.8396 26.4781 45.2276 26.658C45.6155 26.8379 45.9605 27.1002 46.2391 27.4271C46.5176 27.754 46.7232 28.1377 46.8417 28.5522C46.9603 28.9667 46.9891 29.4022 46.9261 29.8289C46.9261 29.8406 46.984 29.4422 44.3551 47.2277C44.2081 48.1926 43.7254 49.0729 42.9938 49.7102C42.2623 50.3476 41.3299 50.7002 40.3642 50.7047ZM18.2537 29.7141H36.568C37.2513 29.7157 37.9134 29.9545 38.4434 30.3905C38.9734 30.8265 39.3393 31.4333 39.4798 32.1094L42.6523 47.6367C42.7631 48.1789 42.6964 48.7429 42.4622 49.2434C43.1117 48.7138 43.5414 47.9574 43.6666 47.1234L46.2387 29.7246C46.2869 29.3979 46.2648 29.0645 46.1739 28.7471C46.0831 28.4298 45.9257 28.136 45.7123 27.8857C45.499 27.6355 45.2349 27.4347 44.9378 27.297C44.6408 27.1593 44.3179 27.088 43.9911 27.0879H23.9891L22.3002 24.382C22.0961 24.0532 21.8126 23.7824 21.4764 23.595C21.1402 23.4076 20.7623 23.3099 20.3783 23.3109H15.947C15.6273 23.3115 15.3114 23.3803 15.0198 23.5127C14.7282 23.6451 14.4675 23.8383 14.2547 24.0795C14.0419 24.3207 13.8819 24.6045 13.785 24.9125C13.6881 25.2205 13.6566 25.5457 13.6924 25.8668H14.272C14.7808 25.8681 15.2808 26.0009 15.7244 26.2525C16.1681 26.5042 16.5408 26.8664 16.807 27.3047L18.2537 29.7141Z" fill="#5E6175"/>
<path d="M16.7715 38.3953L20.5797 34.5452L21.8697 35.8493L18.0614 39.6994L16.7715 38.3953Z" fill="#5E6175"/>
<path d="M16.7715 35.8484L18.0614 34.5444L21.8697 38.3945L20.5797 39.6986L16.7715 35.8484Z" fill="#5E6175"/>
<path d="M25.6362 38.3955L29.4445 34.5454L30.7344 35.8495L26.9261 39.6996L25.6362 38.3955Z" fill="#5E6175"/>
<path d="M25.6362 35.8486L26.9261 34.5445L30.7344 38.3947L29.4445 39.6987L25.6362 35.8486Z" fill="#5E6175"/>
<path d="M30.1652 44.2125C30.0644 44.1211 27.6441 41.9613 23.8676 41.9613C20.0912 41.9613 17.6697 44.1211 17.5689 44.2125L17.271 44.4832L18.5681 45.9445L18.866 45.6809C20.2916 44.5467 22.053 43.9301 23.8671 43.9301C25.6811 43.9301 27.4425 44.5467 28.8682 45.6809L29.1661 45.9481L30.4631 44.4832L30.1652 44.2125Z" fill="#5E6175"/>
<path d="M47.8916 33.0973C52.3702 33.0973 56.0009 29.4267 56.0009 24.8988C56.0009 20.371 52.3702 16.7004 47.8916 16.7004C43.4129 16.7004 39.7822 20.371 39.7822 24.8988C39.7822 29.4267 43.4129 33.0973 47.8916 33.0973Z" fill="#F5F5F5"/>
<path d="M47.887 33.4488C46.2134 33.4488 44.5774 32.9471 43.1859 32.0071C41.7944 31.0671 40.7099 29.731 40.0694 28.1679C39.429 26.6047 39.2614 24.8846 39.5879 23.2252C39.9144 21.5658 40.7203 20.0415 41.9037 18.8451C43.0871 17.6487 44.5948 16.8339 46.2362 16.5038C47.8776 16.1737 49.579 16.3432 51.1252 16.9906C52.6713 17.6381 53.9929 18.7346 54.9226 20.1414C55.8524 21.5482 56.3487 23.2022 56.3487 24.8941C56.3487 27.163 55.4572 29.3389 53.8703 30.9432C52.2835 32.5475 50.1312 33.4488 47.887 33.4488ZM47.887 17.0531C46.3507 17.0531 44.849 17.5138 43.5717 18.3768C42.2944 19.2398 41.299 20.4664 40.7114 21.9014C40.1238 23.3364 39.9703 24.9154 40.2704 26.4386C40.5706 27.9618 41.3108 29.3608 42.3975 30.4587C43.4842 31.5565 44.8686 32.3038 46.3754 32.6061C47.8823 32.9084 49.444 32.7521 50.863 32.1569C52.282 31.5617 53.4945 30.5545 54.3472 29.2625C55.1999 27.9706 55.6544 26.452 55.6532 24.8988C55.6517 22.8175 54.8328 20.8219 53.3765 19.3507C51.9202 17.8795 49.9457 17.0531 47.887 17.0531Z" fill="#5E6175"/>
<path d="M37.5316 17.4668C37.3111 17.4668 37.0955 17.4007 36.9121 17.2768C36.7287 17.1529 36.5858 16.9769 36.5014 16.7709C36.417 16.5649 36.3949 16.3382 36.4379 16.1195C36.481 15.9008 36.5872 15.7 36.7431 15.5423C36.8991 15.3846 37.0977 15.2773 37.3141 15.2338C37.5304 15.1903 37.7546 15.2126 37.9583 15.2979C38.1621 15.3833 38.3362 15.5277 38.4588 15.7131C38.5813 15.8985 38.6467 16.1165 38.6467 16.3395C38.6467 16.6384 38.5292 16.9252 38.3201 17.1366C38.111 17.348 37.8273 17.4668 37.5316 17.4668ZM37.5316 15.9164C37.4486 15.9164 37.3674 15.9413 37.2984 15.988C37.2293 16.0347 37.1755 16.101 37.1438 16.1786C37.1121 16.2561 37.1039 16.3415 37.1201 16.4238C37.1364 16.5061 37.1765 16.5817 37.2353 16.641C37.2941 16.7003 37.369 16.7406 37.4504 16.7568C37.5319 16.7731 37.6163 16.7645 37.693 16.7322C37.7696 16.6999 37.8351 16.6454 37.881 16.5755C37.927 16.5055 37.9514 16.4234 37.9512 16.3395C37.9512 16.2838 37.9403 16.2287 37.9192 16.1773C37.8981 16.1259 37.8672 16.0792 37.8282 16.0399C37.7893 16.0006 37.743 15.9695 37.6921 15.9483C37.6412 15.9271 37.5866 15.9163 37.5316 15.9164Z" fill="#5E6175"/>
<path d="M42.758 14.707C42.4554 14.7061 42.1598 14.6145 41.9086 14.4439C41.6574 14.2732 41.4619 14.0311 41.3467 13.7482C41.2315 13.4652 41.2018 13.1541 41.2614 12.8541C41.321 12.5541 41.4672 12.2787 41.6816 12.0627C41.8959 11.8467 42.1687 11.6997 42.4656 11.6404C42.7625 11.581 43.0702 11.6119 43.3497 11.7292C43.6292 11.8465 43.8681 12.045 44.0361 12.2994C44.2042 12.5539 44.2939 12.853 44.2939 13.159C44.2937 13.3626 44.2539 13.5642 44.1766 13.7523C44.0993 13.9404 43.9861 14.1112 43.8434 14.2549C43.7008 14.3987 43.5315 14.5127 43.3452 14.5902C43.159 14.6678 42.9595 14.7075 42.758 14.707ZM42.758 12.3152C42.5927 12.3152 42.4311 12.3648 42.2936 12.4577C42.1561 12.5506 42.049 12.6826 41.9858 12.8371C41.9226 12.9915 41.9061 13.1615 41.9384 13.3254C41.9708 13.4894 42.0505 13.6399 42.1675 13.758C42.2845 13.8761 42.4335 13.9565 42.5957 13.989C42.7579 14.0215 42.926 14.0046 43.0787 13.9404C43.2313 13.8763 43.3618 13.7678 43.4535 13.6287C43.5452 13.4896 43.594 13.3261 43.5938 13.159C43.5935 12.9351 43.5053 12.7205 43.3486 12.5623C43.1919 12.4041 42.9795 12.3152 42.758 12.3152Z" fill="#5E6175"/>
<path d="M6.64844 52.5541L8.24156 50.9434L8.73327 51.4405L7.14014 53.0512L6.64844 52.5541Z" fill="#5E6175"/>
<path d="M10.0044 52.391H10.6999V54.6691H10.0044V52.391Z" fill="#5E6175"/>
<path d="M4.99902 49.1051H7.25239V49.8082H4.99902V49.1051Z" fill="#5E6175"/>
<path d="M48.7878 26.8535H46.9969C46.9972 26.2416 47.141 25.6385 47.4167 25.0938C47.6923 24.549 48.0919 24.0782 48.5826 23.7199C48.7483 23.5997 48.8806 23.4384 48.9669 23.2516C49.0532 23.0648 49.0906 22.8588 49.0754 22.6532C49.0603 22.4476 48.9932 22.2493 48.8806 22.0775C48.7679 21.9056 48.6135 21.7659 48.4321 21.6717C48.2507 21.5775 48.0484 21.532 47.8446 21.5396C47.6408 21.5472 47.4424 21.6075 47.2683 21.7149C47.0942 21.8223 46.9503 21.9731 46.8504 22.1528C46.7505 22.3326 46.698 22.5352 46.6979 22.7414H44.9116C44.9129 22.2256 45.0452 21.7188 45.2958 21.2695C45.5464 20.8202 45.9068 20.4434 46.3427 20.1753C46.7785 19.9072 47.2752 19.7567 47.785 19.7382C48.2949 19.7198 48.8009 19.8339 49.2546 20.0698C49.7083 20.3057 50.0946 20.6554 50.3763 21.0854C50.658 21.5155 50.8259 22.0114 50.8637 22.5258C50.9015 23.0402 50.8081 23.5557 50.5924 24.0232C50.3767 24.4906 50.0458 24.8942 49.6316 25.1953C49.3715 25.3847 49.1594 25.6338 49.0127 25.922C48.8661 26.2102 48.789 26.5294 48.7878 26.8535Z" fill="#388E3C"/>
<path d="M46.9771 28.2527H48.7749V30.0703H46.9771V28.2527Z" fill="#388E3C"/>
<path d="M40.254 45.2602H39.5585V44.557H40.254V45.2602ZM38.3994 45.2602H37.7039V44.557H38.3994V45.2602ZM36.5447 45.2602H35.8492V44.557H36.5447V45.2602ZM34.6901 45.2602H33.9946V44.557H34.6901V45.2602Z" fill="#A9AFC4"/>
<path d="M42.6641 44.557H43.3595V45.2602H42.6641V44.557Z" fill="#A9AFC4"/>
<path d="M47.9437 45.2602H47.2482V44.557H47.9437V45.2602ZM46.089 45.2602H45.3936V44.557H46.089V45.2602Z" fill="#A9AFC4"/>
<path d="M49.7663 45.259H49.0708V44.5559H49.7663V45.259ZM49.7663 43.384H49.0708V42.6809H49.7663V43.384ZM49.7663 41.509H49.0708V40.8059H49.7663V41.509ZM49.7663 39.634H49.0708V38.9309H49.7663V39.634ZM49.7663 37.759H49.0708V37.0559H49.7663V37.759ZM49.7663 35.884H49.0708V35.1809H49.7663V35.884Z" fill="#A9AFC4"/>
<defs>
<linearGradient id="paint0_linear_23842_11782" x1="13.3252" y1="36.6562" x2="46.6121" y2="36.6562" gradientUnits="userSpaceOnUse">
<stop stop-color="#A9AFC4"/>
<stop offset="1" stop-color="#D4D8E5"/>
</linearGradient>
<linearGradient id="paint1_linear_23842_11782" x1="38.0381" y1="30.7746" x2="46.6123" y2="30.7746" gradientUnits="userSpaceOnUse">
<stop stop-color="#CACFDD"/>
<stop offset="1" stop-color="#EEF0F1"/>
</linearGradient>
</defs>
</svg>
